HIERARCHY
ROOT root
{
	OFFSET	0	13.1	24.9
	CHANNELS 6  Xposition Yposition Zposition Xrotation Yrotation Zrotation
	JOINT spine_1
	{
		OFFSET	0	9.99999	0
		CHANNELS 3  Xrotation Yrotation Zrotation
		JOINT spine_2
		{
			OFFSET	0	112	-10
			CHANNELS 3  Xrotation Yrotation Zrotation
			JOINT spine_3
			{
				OFFSET	0	206.5	19.3
				CHANNELS 3  Xrotation Yrotation Zrotation
				JOINT spine_4
				{
					OFFSET	0	110.4	14.6
					CHANNELS 3  Xrotation Yrotation Zrotation
					JOINT neck_1
					{
						OFFSET	0	71.8	-50.3
						CHANNELS 3  Xrotation Yrotation Zrotation
						JOINT neck_2
						{
							OFFSET	0	86.2	-25.8
							CHANNELS 3  Xrotation Yrotation Zrotation
							JOINT head_ee
							{
								OFFSET	0	179.8	-8.7
								CHANNELS 3  Xrotation Yrotation Zrotation
								End Site
								{
									OFFSET	1	0	0
								}
							}
						}
					}
					JOINT left_clavicle
					{
						OFFSET	-43.2	22.4	-70.8
						CHANNELS 3  Xrotation Yrotation Zrotation
						JOINT left_shoulder
						{
							OFFSET	-93.9	-5.79999	48.7
							CHANNELS 3  Xrotation Yrotation Zrotation
							JOINT left_elbow
							{
								OFFSET	-291.4	-30.8	15.2
								CHANNELS 3  Xrotation Yrotation Zrotation
								JOINT left_lowarm_twist
								{
									OFFSET	-110.7	-3.89999	13.6
									CHANNELS 3  Xrotation Yrotation Zrotation
									JOINT left_hand
									{
										OFFSET	-110.7	-3.89999	13.6
										CHANNELS 3  Xrotation Yrotation Zrotation
										JOINT left_ee
										{
											OFFSET	-80.8	-5.10001	12.1
											CHANNELS 3  Xrotation Yrotation Zrotation
											End Site
											{
												OFFSET	1	0	0
											}
										}
									}
								}
							}
						}
					}
					JOINT right_clavicle
					{
						OFFSET	43.2	22.4	-70.8
						CHANNELS 3  Xrotation Yrotation Zrotation
						JOINT right_shoulder
						{
							OFFSET	93.9	-5.79999	48.7
							CHANNELS 3  Xrotation Yrotation Zrotation
							JOINT right_elbow
							{
								OFFSET	291.4	-30.8	15.2
								CHANNELS 3  Xrotation Yrotation Zrotation
								JOINT right_lowarm_twist
								{
									OFFSET	110.7	-3.89999	13.6
									CHANNELS 3  Xrotation Yrotation Zrotation
									JOINT right_hand
									{
										OFFSET	110.7	-3.89999	13.6
										CHANNELS 3  Xrotation Yrotation Zrotation
										JOINT right_ee
										{
											OFFSET	80.8	-5.10001	12.1
											CHANNELS 3  Xrotation Yrotation Zrotation
											End Site
											{
												OFFSET	1	0	0
											}
										}
									}
								}
							}
						}
					}
				}
			}
		}
	}
	JOINT left_hip
	{
		OFFSET	-82.8	-127.5	0.300001
		CHANNELS 3  Xrotation Yrotation Zrotation
		JOINT left_knee
		{
			OFFSET	-28.2	-396.7	2.2
			CHANNELS 3  Xrotation Yrotation Zrotation
			JOINT left_ankle
			{
				OFFSET	-11.7	-411.3	35.4
				CHANNELS 3  Xrotation Yrotation Zrotation
				JOINT left_toes
				{
					OFFSET	0	-60	-88.6
					CHANNELS 3  Xrotation Yrotation Zrotation
					JOINT left_foot_ee
					{
						OFFSET	-22.5	-16.5	-42.2
						CHANNELS 3  Xrotation Yrotation Zrotation
						End Site
						{
							OFFSET	1	0	0
						}
					}
				}
			}
		}
	}
	JOINT right_hip
	{
		OFFSET	82.8	-127.5	0.300001
		CHANNELS 3  Xrotation Yrotation Zrotation
		JOINT right_knee
		{
			OFFSET	28.2	-396.7	2.2
			CHANNELS 3  Xrotation Yrotation Zrotation
			JOINT right_ankle
			{
				OFFSET	11.7	-411.3	35.4
				CHANNELS 3  Xrotation Yrotation Zrotation
				JOINT right_toes
				{
					OFFSET	0	-60	-88.6
					CHANNELS 3  Xrotation Yrotation Zrotation
					JOINT right_foot_ee
					{
						OFFSET	22.5	-16.5	-42.2
						CHANNELS 3  Xrotation Yrotation Zrotation
						End Site
						{
							OFFSET	1	0	0
						}
					}
				}
			}
		}
	}
}
MOTION
Frames: 12
Frame Time: 0.02
2800.94 716.97 -1473.77 23.2010328454 79.401097874 -21.1076609007 -0.987348 -0.721362 -2.37191 -0.984399 -0.569015 -2.41298 -0.957484 -0.00791483 -2.47911 -0.965838 -0.399226 -2.44678 -7.90165 10.4874 8.68346 -7.7249 13.4236 10.8356 -0.0 0.0 -0.0 7.79037 5.98 15.0041 9.67026 -25.6271 56.5617 2.44134 -50.4057 1.14909 -59.3991 -5.20812 5.08208 -2.80362 16.5721 -10.4724 -0.0 0.0 -0.0 -0.591043 4.33002 1.69793 -14.0789 9.59986 -72.5187 0.402573 11.2783 -0.0397507 19.3277 -0.271373 2.44234 -1.57409 -27.8772 -2.31768 0.0 0.0 0.0 -19.8143 -3.26861 3.95495 0.886526 -0.0375197 -0.130866 41.4835 16.1639 -5.08296 -39.4275 0.0 0.0 -0.0 0.0 -0.0 23.7933 19.3458 -2.6178 2.24918 0.0991335 0.330869 -2.87293 4.91143 -0.43503 -32.4204 0.0 0.0 0.0 0.0 0.0 
2695.86788875 715.02 -1504.14812372 48.6360128236 84.973183904 -47.4833607611 -0.96645 -0.439702 -2.02238 -0.964228 -0.310149 -2.04625 -0.951206 0.161127 -2.06333 -0.957109 -0.166688 -2.06289 2.05979 10.9778 4.52734 2.27893 15.4826 5.8491 -0.0 0.0 -0.0 7.39738 5.08839 14.2902 0.633939 -23.974 59.2518 1.91473 -43.4814 0.7636 -57.4381 -4.96597 5.0143 -2.31969 16.2779 -7.61935 -0.0 0.0 -0.0 1.21366 5.60812 -1.77954 -12.6361 9.80808 -72.9143 0.412769 11.5564 -0.041769 19.6693 -0.268712 2.48589 -1.58927 -26.7542 -1.72379 0.0 0.0 0.0 -21.417 -4.36655 3.54421 -7.31732 0.231389 1.09839 37.959 15.4386 -4.75151 -38.9197 0.0 0.0 -0.0 0.0 -0.0 24.7487 20.7627 -5.32995 -12.7134 -0.311283 -1.92223 2.5566 4.02076 0.380508 -27.4151 0.0 0.0 0.0 0.0 0.0 
2696.49341155 715.02 -1506.23365852 40.2354419619 84.1565484565 -39.045201154 -0.96645 -0.439702 -2.02238 -0.964228 -0.310149 -2.04625 -0.951206 0.161127 -2.06333 -0.957109 -0.166688 -2.06289 2.05979 10.9778 4.52734 2.27893 15.4826 5.8491 -0.0 0.0 -0.0 7.39738 5.08839 14.2902 0.633939 -23.974 59.2518 1.91473 -43.4814 0.7636 -57.4381 -4.96597 5.0143 -2.31969 16.2779 -7.61935 -0.0 0.0 -0.0 1.21366 5.60812 -1.77954 -12.6361 9.80808 -72.9143 0.412769 11.5564 -0.041769 19.6693 -0.268712 2.48589 -1.58927 -26.7542 -1.72379 0.0 0.0 0.0 -21.417 -4.36655 3.54421 -7.31732 0.231389 1.09839 37.959 15.4386 -4.75151 -38.9197 0.0 0.0 -0.0 0.0 -0.0 24.7487 20.7627 -5.32995 -12.7134 -0.311283 -1.92223 2.5566 4.02076 0.380508 -27.4151 0.0 0.0 0.0 0.0 0.0 
2697.03620399 715.02 -1507.931091 34.9996608971 83.4162961506 -33.7786330685 -0.96645 -0.439702 -2.02238 -0.964228 -0.310149 -2.04625 -0.951206 0.161127 -2.06333 -0.957109 -0.166688 -2.06289 2.05979 10.9778 4.52734 2.27893 15.4826 5.8491 -0.0 0.0 -0.0 7.39738 5.08839 14.2902 0.633939 -23.974 59.2518 1.91473 -43.4814 0.7636 -57.4381 -4.96597 5.0143 -2.31969 16.2779 -7.61935 -0.0 0.0 -0.0 1.21366 5.60812 -1.77954 -12.6361 9.80808 -72.9143 0.412769 11.5564 -0.041769 19.6693 -0.268712 2.48589 -1.58927 -26.7542 -1.72379 0.0 0.0 0.0 -21.417 -4.36655 3.54421 -7.31732 0.231389 1.09839 37.959 15.4386 -4.75151 -38.9197 0.0 0.0 -0.0 0.0 -0.0 24.7487 20.7627 -5.32995 -12.7134 -0.311283 -1.92223 2.5566 4.02076 0.380508 -27.4151 0.0 0.0 0.0 0.0 0.0 
2682.82106235 714.966 -1511.73496989 34.7816961533 83.1542326647 -32.7238850396 -1.12012 -0.376401 -2.09854 -1.1177 -0.242133 -2.11823 -1.10665 0.249474 -2.11738 -1.11289 -0.0879785 -2.1302 2.34735 10.9849 4.69427 2.56816 15.2961 6.01542 -0.0 0.0 -0.0 6.2477 3.63813 12.125 0.246738 -24.3099 62.5491 1.71086 -40.2781 0.627449 -55.9352 -4.78201 4.95676 -2.31258 16.9699 -7.22489 -0.0 0.0 -0.0 1.39692 6.26369 -2.08384 -10.9453 10.6074 -73.1353 0.372667 10.4597 -0.0341112 19.6761 -0.268657 2.48676 -1.39096 -26.7492 -2.8152 0.0 0.0 0.0 -21.6683 -4.45745 2.67663 -7.98991 0.245577 1.20063 37.4166 15.0008 -4.69387 -38.5891 0.0 0.0 -0.0 0.0 -0.0 24.4004 20.386 -6.45593 -13.6345 -0.317153 -2.06344 5.76276 5.02573 0.852793 -27.1826 0.0 0.0 0.0 0.0 0.0 
2683.66877489 714.966 -1514.27780333 29.675959536 82.1060591435 -27.5758895553 -1.12012 -0.376401 -2.09854 -1.1177 -0.242133 -2.11823 -1.10665 0.249474 -2.11738 -1.11289 -0.0879785 -2.1302 2.34735 10.9849 4.69427 2.56816 15.2961 6.01542 -0.0 0.0 -0.0 6.2477 3.63813 12.125 0.246738 -24.3099 62.5491 1.71086 -40.2781 0.627449 -55.9352 -4.78201 4.95676 -2.31258 16.9699 -7.22489 -0.0 0.0 -0.0 1.39692 6.26369 -2.08384 -10.9453 10.6074 -73.1353 0.372667 10.4597 -0.0341112 19.6761 -0.268657 2.48676 -1.39096 -26.7492 -2.8152 0.0 0.0 0.0 -21.6683 -4.45745 2.67663 -7.98991 0.245577 1.20063 37.4166 15.0008 -4.69387 -38.5891 0.0 0.0 -0.0 0.0 -0.0 24.4004 20.386 -6.45593 -13.6345 -0.317153 -2.06344 5.76276 5.02573 0.852793 -27.1826 0.0 0.0 0.0 0.0 0.0 
2666.56174301 722.344 -1520.04732466 29.6545861257 81.2708777197 -27.5430804534 -1.12882 -0.235231 -2.03054 -1.12654 -0.105573 -2.04139 -1.12097 0.36538 -2.01121 -1.12661 0.0432312 -2.04366 1.76745 10.1332 5.22969 1.9462 13.454 6.57633 -0.0 0.0 -0.0 6.17004 4.34346 11.9763 -1.94944 -24.0798 63.8646 1.48618 -36.3585 0.488058 -55.8001 -4.76554 4.95135 -2.38176 17.48 -7.39013 -0.0 0.0 -0.0 1.32408 6.13176 -1.94965 -8.9082 11.5665 -73.857 0.408017 11.4269 -0.0408224 19.8288 -0.267381 2.50622 -1.4546 -27.0538 -2.60028 0.0 0.0 0.0 -19.3573 -3.87568 2.3562 -12.6566 0.310847 1.91352 34.6403 17.1942 -4.45337 -39.8871 0.0 0.0 -0.0 0.0 -0.0 23.4388 20.7765 -7.65159 -14.0778 -0.319169 -2.13142 6.00819 3.84016 0.884324 -27.4424 0.0 0.0 0.0 0.0 0.0 
2667.17265868 722.344 -1521.7846345 27.4286469459 80.618553405 -25.2890928539 -1.12882 -0.235231 -2.03054 -1.12654 -0.105573 -2.04139 -1.12097 0.36538 -2.01121 -1.12661 0.0432312 -2.04366 1.76745 10.1332 5.22969 1.9462 13.454 6.57633 -0.0 0.0 -0.0 6.17004 4.34346 11.9763 -1.94944 -24.0798 63.8646 1.48618 -36.3585 0.488058 -55.8001 -4.76554 4.95135 -2.38176 17.48 -7.39013 -0.0 0.0 -0.0 1.32408 6.13176 -1.94965 -8.9082 11.5665 -73.857 0.408017 11.4269 -0.0408224 19.8288 -0.267381 2.50622 -1.4546 -27.0538 -2.60028 0.0 0.0 0.0 -19.3573 -3.87568 2.3562 -12.6566 0.310847 1.91352 34.6403 17.1942 -4.45337 -39.8871 0.0 0.0 -0.0 0.0 -0.0 23.4388 20.7765 -7.65159 -14.0778 -0.319169 -2.13142 6.00819 3.84016 0.884324 -27.4424 0.0 0.0 0.0 0.0 0.0 
2654.82103938 726.71 -1522.76411402 25.8751121125 79.1890105733 -23.5709923514 -1.19218 -0.0958133 -2.12077 -1.18968 0.0392998 -2.12257 -1.18934 0.527567 -2.05636 -1.19519 0.196259 -2.11384 3.83079 11.1599 4.06932 4.08509 15.8422 5.23407 -0.0 0.0 -0.0 5.89687 2.62323 11.4506 -4.02334 -23.3762 66.0177 1.2738 -32.2507 0.368289 -55.4054 -4.71752 4.93533 -2.2108 16.7731 -6.69784 -0.0 0.0 -0.0 1.01464 6.68032 -1.26674 -6.55104 12.02 -73.7009 0.421274 11.7879 -0.0434896 19.8338 -0.267338 2.50686 -1.38231 -27.0445 -2.99353 0.0 0.0 0.0 -18.1585 -3.26862 1.66368 -11.2762 0.297593 1.70215 32.5695 17.5114 -4.24345 -40.1634 0.0 0.0 -0.0 0.0 -0.0 22.399 21.2812 -8.26111 -15.3342 -0.322023 -2.32416 5.39996 2.58791 0.792855 -27.3202 0.0 0.0 0.0 0.0 0.0 
2639.17796341 727.108 -1526.92090054 22.865747514 75.1310452956 -20.7583321388 -1.44961 -0.0960296 -2.0579 -1.44725 0.035086 -2.05983 -1.44667 0.517954 -1.99399 -1.45217 0.196611 -2.05073 0.902228 10.6796 4.35903 1.09624 15.3195 5.72287 -0.0 0.0 -0.0 5.97007 5.58167 11.5977 -5.75887 -21.2132 66.6053 0.90456 -24.1365 0.1934 -55.0712 -4.67693 4.92149 -2.7509 17.3934 -9.70596 -0.0 0.0 -0.0 1.08672 10.1709 -1.04906 -3.56796 14.1443 -74.3328 0.424502 11.8757 -0.0441515 20.3467 -0.26267 2.57221 -1.48895 -28.755 -3.17292 0.0 0.0 0.0 -15.3792 -1.861 -0.82533 -14.3627 0.320187 2.17513 33.6814 17.4004 -4.35817 -39.5243 0.0 0.0 -0.0 0.0 -0.0 18.8757 24.2886 -8.00573 -14.242 -0.319782 -2.15661 13.9989 9.77512 2.05436 -23.0755 0.0 0.0 0.0 0.0 0.0 
2640.37930538 727.108 -1530.4466094 21.1656316305 73.9689042405 -18.9945766825 -1.44961 -0.0960296 -2.0579 -1.44725 0.035086 -2.05983 -1.44667 0.517954 -1.99399 -1.45217 0.196611 -2.05073 0.902228 10.6796 4.35903 1.09624 15.3195 5.72287 -0.0 0.0 -0.0 5.97007 5.58167 11.5977 -5.75887 -21.2132 66.6053 0.90456 -24.1365 0.1934 -55.0712 -4.67693 4.92149 -2.7509 17.3934 -9.70596 -0.0 0.0 -0.0 1.08672 10.1709 -1.04906 -3.56796 14.1443 -74.3328 0.424502 11.8757 -0.0441515 20.3467 -0.26267 2.57221 -1.48895 -28.755 -3.17292 0.0 0.0 0.0 -15.3792 -1.861 -0.82533 -14.3627 0.320187 2.17513 33.6814 17.4004 -4.35817 -39.5243 0.0 0.0 -0.0 0.0 -0.0 18.8757 24.2886 -8.00573 -14.242 -0.319782 -2.15661 13.9989 9.77512 2.05436 -23.0755 0.0 0.0 0.0 0.0 0.0 
2629.32261543 728.141 -1541.12022757 21.1453530111 74.0477071341 -18.6087933874 -1.56787 0.0757176 -2.01056 -1.56564 0.203475 -2.00167 -1.57121 0.672172 -1.89643 -1.57604 0.364293 -1.97874 0.621658 10.6709 4.49107 0.811125 15.2476 5.88602 -0.0 0.0 -0.0 5.56325 3.98363 10.829 -6.83519 -21.2793 67.9525 0.713686 -19.4705 0.122446 -53.7102 -4.51251 4.86274 -2.35839 15.9627 -8.0194 -0.0 0.0 -0.0 1.15876 9.96083 -1.22023 1.4634 14.4327 -73.702 0.493132 13.7278 -0.0593605 19.8595 -0.267119 2.51013 -1.58829 -28.8129 -2.66491 0.0 0.0 0.0 -15.209 -1.37324 -2.05351 -14.6199 0.320919 2.21457 30.2965 18.9084 -4.019 -39.4616 0.0 0.0 -0.0 0.0 -0.0 16.9542 23.1742 -8.23262 -11.922 -0.304428 -1.801 13.5485 7.09986 1.96554 -25.4936 0.0 0.0 0.0 0.0 0.0 
